<svg width="741" height="134" viewBox="0 0 741 134" fill="none" xmlns="http://www.w3.org/2000/svg">
<path d="M43.92 77.33C47.61 74.36 49.86 70.13 49.86 64.73C49.86 54.2 41.31 47 30.69 47H5.85V110H32.58C43.47 110 52.2 102.53 52.2 91.73C52.2 85.16 48.96 80.21 43.92 77.33ZM30.69 58.61C34.65 58.61 37.44 61.58 37.44 65.54C37.44 69.5 34.56 72.47 30.69 72.47H18.27V58.61H30.69ZM32.58 98.39H18.27V83.54H32.58C36.81 83.54 39.87 86.69 39.87 90.92C39.87 95.24 36.81 98.39 32.58 98.39ZM70.3153 92.27H104.245C104.515 90.74 104.695 89.21 104.695 87.5C104.695 74.27 95.2453 63.74 81.9253 63.74C67.7953 63.74 58.1653 74.09 58.1653 87.5C58.1653 100.91 67.7053 111.26 82.8253 111.26C91.4653 111.26 98.2153 107.75 102.445 101.63L93.0853 96.23C91.1053 98.84 87.5053 100.73 83.0053 100.73C76.8853 100.73 71.9353 98.21 70.3153 92.27ZM70.1353 83.27C71.4853 77.51 75.7153 74.18 81.9253 74.18C86.7853 74.18 91.6453 76.79 93.0853 83.27H70.1353ZM121.752 77.78C121.752 75.35 124.092 74.09 126.972 74.09C130.302 74.09 132.822 75.8 134.172 78.68L144.072 73.28C140.562 67.07 134.262 63.74 126.972 63.74C117.702 63.74 109.872 68.87 109.872 78.05C109.872 93.89 133.092 90.29 133.092 96.86C133.092 99.47 130.572 100.73 126.882 100.73C122.382 100.73 119.322 98.57 118.062 94.88L107.982 100.55C111.222 107.48 117.882 111.26 126.882 111.26C136.512 111.26 144.972 106.58 144.972 96.86C144.972 80.3 121.752 84.44 121.752 77.78ZM176.861 76.16V65H166.691V52.4L155.081 55.91V65H147.251V76.16H155.081V94.88C155.081 107.03 160.571 111.8 176.861 110V99.47C170.201 99.83 166.691 99.74 166.691 94.88V76.16H176.861ZM230.959 54.92V47H194.689V110H203.059V83.27H229.789V75.35H203.059V54.92H230.959ZM277.546 65V72.74C273.946 67.25 268.186 63.83 260.536 63.83C248.026 63.83 237.766 74.18 237.766 87.5C237.766 100.82 248.026 111.17 260.536 111.17C268.186 111.17 273.946 107.75 277.546 102.26V110H285.376V65H277.546ZM261.526 103.61C252.526 103.61 245.596 96.68 245.596 87.5C245.596 78.32 252.526 71.39 261.526 71.39C270.616 71.39 277.546 78.32 277.546 87.5C277.546 96.68 270.616 103.61 261.526 103.61ZM305.069 72.56V65H297.239V110H305.069V86.15C305.069 75.53 312.359 72.11 319.109 72.38V64.19C313.439 64.19 307.949 66.26 305.069 72.56ZM329.799 91.1H367.509C367.689 89.93 367.779 88.76 367.779 87.59C367.779 74.99 358.959 63.83 345.369 63.83C331.329 63.83 321.789 74.18 321.789 87.5C321.789 101 331.419 111.17 345.909 111.17C354.909 111.17 361.749 107.12 365.709 101L359.049 97.22C356.799 100.91 352.299 103.79 346.089 103.79C337.719 103.79 331.329 99.2 329.799 91.1ZM345.369 71.21C352.119 71.21 358.509 75.35 359.859 84.26H329.799C331.059 76.43 336.909 71.21 345.369 71.21Z" fill="white"/>
<path d="M529.75 53.94V48H494.2V111H500.5V83.1H528.4V77.16H500.5V53.94H529.75ZM542.588 56.46C545.018 56.46 546.908 54.48 546.908 52.14C546.908 49.8 545.018 47.82 542.588 47.82C540.158 47.82 538.268 49.8 538.268 52.14C538.268 54.48 540.158 56.46 542.588 56.46ZM539.618 111H545.558V66H539.618V111ZM579.223 64.92C572.833 64.92 567.613 67.35 564.103 73.02V66H558.163V111H564.103V87.42C564.103 75.36 570.763 70.68 578.683 70.68C586.513 70.68 590.923 75.36 590.923 83.37V111H596.863V83.37C596.863 72.12 590.203 64.92 579.223 64.92ZM647.049 48V74.82C643.269 68.79 636.879 64.92 628.869 64.92C616.179 64.92 605.649 75.18 605.649 88.5C605.649 101.82 616.179 112.08 628.869 112.08C636.879 112.08 643.269 108.21 647.049 102.18V111H652.989V48H647.049ZM629.319 106.32C619.329 106.32 611.589 98.49 611.589 88.5C611.589 78.51 619.329 70.68 629.319 70.68C639.309 70.68 647.049 78.51 647.049 88.5C647.049 98.49 639.309 106.32 629.319 106.32ZM686.356 64.92C672.406 64.92 662.866 75.27 662.866 88.5C662.866 102.09 672.586 112.08 686.806 112.08C695.896 112.08 702.826 107.85 706.606 101.73L701.386 98.67C698.956 102.99 694.006 106.32 686.896 106.32C677.356 106.32 670.246 100.65 668.986 91.47H708.496C708.586 90.57 708.676 89.58 708.676 88.68C708.676 76.35 700.126 64.92 686.356 64.92ZM686.356 70.68C694.096 70.68 701.296 75.81 702.556 85.71H668.986C670.156 76.89 676.906 70.68 686.356 70.68ZM724.064 73.47V66H718.124V111H724.064V85.98C724.064 74.82 731.084 71.04 738.284 71.04V65.28C732.524 65.28 727.214 67.17 724.064 73.47Z" fill="white"/>
<path fill-rule="evenodd" clip-rule="evenodd" d="M458.006 44.1243C458.006 53.4463 454.898 62.1469 449.305 69.6045L481 101.299L472.299 110L440.605 78.3051C433.147 83.8983 423.825 87.0056 414.503 87.0056H413.881C402.073 87.0056 391.508 82.0339 383.429 73.9548C375.35 65.2542 371 54.6893 371 42.8814C371 31.0734 375.972 20.5085 384.051 12.4294C392.751 4.35028 403.316 0 415.124 0C426.932 0 437.497 4.97175 445.576 13.0508C453.655 21.7514 458.006 32.3164 458.006 44.1243ZM413.881 74.5763C422.582 74.5763 430.04 71.4689 436.254 65.8757C441.847 60.2825 445.576 52.2034 445.576 44.1243C445.576 35.4237 442.469 27.9661 436.876 21.7514C431.282 16.1582 423.203 12.4294 415.124 12.4294H414.503C406.424 12.4294 398.966 15.5367 392.751 21.1299C387.158 26.7232 383.429 34.8023 383.429 42.8814C383.429 50.9604 386.537 59.0395 392.13 65.2542C397.723 70.8475 405.802 74.5763 413.881 74.5763Z" fill="#00A3E0"/>
</svg>
