<svg width="700" height="278" viewBox="0 0 700 278" fill="none" xmlns="http://www.w3.org/2000/svg">
<g clip-path="url(#clip0_428_994)">
<path d="M395.107 32.9586C373.872 11.7081 345.603 0 315.553 0C285.504 0 257.234 11.7081 236 32.9586C194.797 74.1514 192.309 139.618 228.493 183.749L156.64 242.161C148.661 250.138 148.661 263.09 156.64 271.066C164.619 279.043 177.574 279.043 185.553 271.066L243.936 199.252C264.055 215.914 289.107 224.985 315.553 224.985C345.603 224.985 373.872 213.276 395.128 192.026C416.384 170.776 428.095 142.535 428.095 112.492C428.073 82.45 416.362 54.1876 395.107 32.9586ZM385.562 182.484C366.859 201.182 342 211.475 315.553 211.475C289.107 211.475 264.248 201.182 245.545 182.484C206.937 143.885 206.937 81.0991 245.545 42.5009C264.248 23.8022 289.107 13.5094 315.553 13.5094C342 13.5094 366.859 23.8022 385.562 42.5009C404.265 61.1996 414.561 86.0525 414.561 112.492C414.561 138.932 404.265 163.785 385.562 182.484Z" fill="#00A1DE"/>
<path d="M245.759 138.825C245.759 139.661 245.523 140.326 245.03 140.798C244.558 141.269 243.893 141.527 243.057 141.527H234.949C234.113 141.527 233.448 141.291 232.976 140.798C232.504 140.326 232.247 139.661 232.247 138.825V104.344H229.372C228.536 104.344 227.871 104.108 227.399 103.615C226.927 103.143 226.67 102.478 226.67 101.642V95.5091C226.67 94.6728 226.906 94.008 227.399 93.5363C227.871 93.0645 228.536 92.8072 229.372 92.8072H232.247C232.483 86.3742 234.306 81.4851 237.695 78.1184C241.083 74.7518 245.845 73.0792 251.979 73.0792C253.116 73.0792 254.253 73.165 255.411 73.358C257.084 73.5939 257.878 74.6232 257.749 76.4244L257.385 81.9997C257.32 83.5651 256.784 84.337 255.754 84.337L253.502 84.2513C250.499 84.2513 248.462 84.9803 247.368 86.4171C246.274 87.8538 245.738 89.9981 245.738 92.8072H251.958C252.794 92.8072 253.459 93.0431 253.931 93.5363C254.403 94.008 254.661 94.6728 254.661 95.5091V101.642C254.661 102.478 254.425 103.143 253.931 103.615C253.459 104.086 252.794 104.344 251.958 104.344H245.738V138.825H245.759Z" fill="#00A1DE"/>
<path d="M298.545 140.819C298.073 140.347 297.815 139.683 297.815 138.846V136.595C296.614 138.224 294.598 139.618 291.788 140.819C288.957 142.02 285.954 142.62 282.78 142.62C277.739 142.62 273.321 141.484 269.546 139.232C265.771 136.981 262.875 133.85 260.902 129.819C258.929 125.916 257.921 121.563 257.921 116.76C257.921 111.892 258.929 107.517 260.945 103.615C262.961 99.712 265.814 96.6241 269.546 94.3297C273.278 92.0567 277.675 90.8987 282.78 90.8987C286.083 90.8987 289.064 91.4777 291.702 92.6142C294.341 93.7507 296.378 95.2517 297.837 97.1173V94.6942C297.837 93.8579 298.073 93.1932 298.566 92.7214C299.038 92.2497 299.703 91.9923 300.539 91.9923H308.475C309.312 91.9923 309.977 92.2282 310.449 92.7214C310.92 93.1932 311.178 93.8579 311.178 94.6942V138.825C311.178 139.661 310.942 140.326 310.449 140.798C309.977 141.269 309.312 141.527 308.475 141.527H300.539C299.703 141.527 299.038 141.291 298.545 140.819ZM294.641 106.595C292.153 104.022 288.85 102.714 284.775 102.714C280.635 102.714 277.332 104.001 274.865 106.595C272.399 109.169 271.176 112.578 271.176 116.781C271.176 120.855 272.441 124.2 274.951 126.816C277.482 129.433 280.742 130.741 284.775 130.741C288.978 130.741 292.303 129.497 294.727 127.009C297.15 124.522 298.373 121.113 298.373 116.781C298.373 112.557 297.129 109.169 294.641 106.595Z" fill="#00A1DE"/>
<path d="M350 91.8208C350.472 92.2925 350.729 93.0002 350.729 93.9008V101.556C350.729 103.186 349.828 104.086 348.027 104.258C346.096 104.387 344.187 104.837 342.257 105.652C340.327 106.467 338.589 107.71 337.024 109.383C334.857 111.72 333.785 115.151 333.785 119.654V138.846C333.785 139.683 333.549 140.347 333.056 140.819C332.584 141.291 331.919 141.548 331.082 141.548H323.06C322.224 141.548 321.559 141.312 321.087 140.819C320.615 140.347 320.358 139.683 320.358 138.846V94.6942C320.358 93.8579 320.594 93.1932 321.087 92.7214C321.58 92.2497 322.224 91.9923 323.06 91.9923H331.082C331.919 91.9923 332.584 92.2282 333.056 92.7214C333.527 93.2146 333.785 93.8579 333.785 94.6942V98.5755C335.522 96.3025 337.667 94.5441 340.177 93.3433C342.707 92.1424 345.303 91.4134 348.005 91.1775C348.842 91.1346 349.507 91.3276 350 91.8208Z" fill="#00A1DE"/>
<path d="M365.572 140.176C361.539 138.439 358.151 135.737 355.384 132.07C352.445 128.232 350.965 123.193 350.965 116.931C350.965 111.828 352.145 107.324 354.526 103.422C356.906 99.519 360.124 96.4955 364.22 94.3726C368.296 92.2497 372.864 91.1775 377.905 91.1775C382.345 91.1775 386.506 92.1639 390.388 94.0938C394.27 96.0452 397.423 98.8542 399.89 102.521C401.52 104.923 402.571 107.26 403.043 109.555C403.515 111.828 403.772 114.508 403.772 117.574C403.772 118.84 403.45 119.89 402.785 120.727C402.12 121.563 401.198 121.992 399.997 121.992H364.414C365.078 125.122 366.73 127.395 369.368 128.832C372.006 130.269 374.859 130.998 377.926 130.998C380.393 130.998 382.495 130.633 384.232 129.926C385.969 129.197 387.535 128.189 388.908 126.859C389.68 126.195 390.409 125.873 391.074 125.873C391.611 125.873 392.147 126.045 392.704 126.409L398.56 129.84C399.525 130.376 399.997 131.041 399.997 131.813C399.997 132.285 399.761 132.864 399.268 133.528C393.734 139.704 386.634 142.813 377.926 142.813C373.722 142.792 369.604 141.913 365.572 140.176ZM368.768 105.695C366.387 107.496 365.057 109.748 364.757 112.449H389.53C389.358 110.82 388.758 109.297 387.728 107.86C386.699 106.424 385.347 105.244 383.674 104.344C382.001 103.443 380.05 102.993 377.819 102.993C374.173 102.993 371.148 103.893 368.768 105.695Z" fill="#00A1DE"/>
<path d="M315.51 202.019C314.417 202.019 313.344 201.997 312.25 201.954C310.449 201.89 309.054 200.367 309.119 198.588C309.183 196.786 310.706 195.393 312.486 195.457C335.479 196.315 358 187.459 374.28 171.204C375.545 169.939 377.626 169.939 378.891 171.204C380.157 172.47 380.157 174.55 378.891 175.815C362.097 192.562 339.168 202.019 315.51 202.019ZM376.575 54.7451C375.738 54.7451 374.902 54.4234 374.28 53.8016C359.909 39.4345 340.841 30.8571 320.594 29.6348C318.792 29.5276 317.419 27.9837 317.527 26.1824C317.634 24.3812 319.157 23.0088 320.98 23.116C342.836 24.4241 363.384 33.6876 378.891 49.1698C380.157 50.435 380.157 52.515 378.891 53.7801C378.226 54.4234 377.411 54.7451 376.575 54.7451ZM268.366 43.5087C267.294 43.5087 266.264 42.9941 265.642 42.0291C264.656 40.5281 265.085 38.5124 266.586 37.526C275.981 31.3932 286.319 27.1259 297.343 24.8315C299.102 24.467 300.84 25.6035 301.204 27.3618C301.569 29.1202 300.432 30.8571 298.673 31.2216C288.464 33.3231 278.876 37.2901 270.168 42.9726C269.61 43.3372 268.988 43.5087 268.366 43.5087Z" fill="white"/>
<path d="M12.6118 140.862C12.14 141.312 11.4751 141.527 10.6386 141.527H2.70254C1.86604 141.527 1.20113 141.291 0.729256 140.798C0.235936 140.326 0 139.661 0 138.825V76.1456C0 75.3093 0.235936 74.6446 0.729256 74.1728C1.20113 73.7011 1.86604 73.4438 2.70254 73.4438H10.6386C11.4751 73.4438 12.14 73.6796 12.6118 74.1728C13.0837 74.6446 13.3411 75.3093 13.3411 76.1456V97.1388C14.7782 95.2732 16.8158 93.7722 19.4754 92.6357C22.1136 91.4991 25.095 90.9202 28.3981 90.9202C33.3742 90.9202 37.7712 92.0352 41.5462 94.2868C45.3211 96.5384 48.2381 99.6477 50.2758 103.615C52.2491 107.582 53.2571 111.956 53.2571 116.76C53.2571 121.627 52.2705 126.002 50.2758 129.904C48.3025 133.807 45.4498 136.895 41.7177 139.189C37.8784 141.462 33.4385 142.62 28.3766 142.62C25.2022 142.62 22.1994 142.02 19.3682 140.819C16.537 139.618 14.5422 138.203 13.3411 136.595V139.018C13.3411 139.79 13.0837 140.412 12.6118 140.862ZM16.4512 126.988C18.8749 129.475 22.1994 130.719 26.4034 130.719C30.4357 130.719 33.6959 129.411 36.2269 126.795C38.7578 124.179 40.0018 120.834 40.0018 116.76C40.0018 112.557 38.7793 109.169 36.3127 106.574C33.8461 104.001 30.543 102.693 26.4034 102.693C22.3281 102.693 19.025 103.979 16.537 106.574C14.0489 109.147 12.8049 112.557 12.8049 116.76C12.7834 121.091 14.006 124.501 16.4512 126.988Z" fill="white"/>
<path d="M72.5181 140.176C68.4857 138.439 65.0968 135.737 62.3299 132.07C59.3915 128.232 57.9115 123.193 57.9115 116.931C57.9115 111.828 59.0912 107.324 61.472 103.422C63.8528 99.519 67.0701 96.4955 71.1668 94.3726C75.2421 92.2497 79.8106 91.1775 84.8511 91.1775C89.291 91.1775 93.452 92.1639 97.3342 94.0938C101.216 96.0452 104.369 98.8542 106.836 102.521C108.466 104.923 109.517 107.26 109.989 109.555C110.461 111.828 110.718 114.508 110.718 117.574C110.718 118.84 110.396 119.89 109.732 120.727C109.067 121.563 108.144 121.992 106.943 121.992H71.3384C72.0033 125.122 73.6548 127.395 76.293 128.832C78.9312 130.269 81.7839 130.998 84.8511 130.998C87.3177 130.998 89.4197 130.633 91.157 129.926C92.8943 129.197 94.4601 128.189 95.8328 126.859C96.605 126.195 97.3342 125.873 97.9991 125.873C98.5353 125.873 99.0716 126.045 99.6292 126.409L105.485 129.84C106.45 130.376 106.922 131.041 106.922 131.813C106.922 132.285 106.686 132.864 106.193 133.528C100.659 139.704 93.5593 142.813 84.8511 142.813C80.6471 142.792 76.5504 141.913 72.5181 140.176ZM75.7139 105.695C73.3331 107.496 72.0033 109.748 71.703 112.449H96.4763C96.3047 110.82 95.7041 109.297 94.6746 107.86C93.645 106.424 92.2938 105.244 90.6208 104.344C88.9478 103.443 86.9959 102.993 84.7653 102.993C81.0976 102.993 78.0947 103.893 75.7139 105.695Z" fill="white"/>
<path d="M117.024 136.573C116.252 136.037 115.844 135.372 115.844 134.6C115.844 134 116.059 133.4 116.466 132.799L120.349 127.674C120.949 126.902 121.636 126.495 122.429 126.495C123.03 126.495 123.566 126.645 124.059 126.945C126.226 128.146 128.521 129.111 130.944 129.819C133.368 130.548 135.706 130.891 137.937 130.891C139.974 130.891 141.669 130.462 143.02 129.626C144.371 128.789 145.036 127.739 145.036 126.473C145.036 125.337 144.414 124.501 143.149 123.943C141.883 123.407 140.275 122.978 138.28 122.678L135.491 122.313C131.352 121.649 128.07 120.877 125.668 119.976C123.266 119.075 121.078 117.639 119.083 115.644C116.917 113.479 115.844 110.519 115.844 106.724C115.844 101.084 117.861 97.053 121.914 94.6513C125.968 92.2497 130.751 91.0488 136.285 91.0488C139.76 91.0488 142.999 91.4991 145.98 92.3998C148.961 93.3004 151.857 94.6728 154.667 96.5384C155.503 97.0101 155.932 97.6748 155.932 98.5111C155.932 99.0472 155.696 99.6476 155.203 100.312L151.428 105.352C150.827 106.124 150.141 106.531 149.347 106.531C148.747 106.531 148.168 106.381 147.631 106.081C143.492 103.851 139.545 102.757 135.835 102.757C134.205 102.757 132.725 103.1 131.373 103.786C130.022 104.472 129.336 105.373 129.336 106.445C129.336 107.775 130.151 108.718 131.824 109.319C133.475 109.919 135.77 110.434 138.709 110.841C143.513 111.677 147.074 112.514 149.39 113.329C151.707 114.143 153.766 115.516 155.567 117.424C157.498 119.654 158.442 122.678 158.442 126.516C158.442 131.684 156.661 135.651 153.122 138.439C149.583 141.226 144.564 142.62 138.087 142.62C130.108 142.706 123.094 140.669 117.024 136.573Z" fill="white"/>
<path d="M181.885 123.064C181.885 125.53 182.293 127.374 183.108 128.596C183.923 129.819 185.553 130.44 188.019 130.44H188.641C190.507 130.44 191.43 131.32 191.43 133.057V138.996C191.43 139.833 191.215 140.519 190.765 141.012C190.314 141.527 189.671 141.805 188.834 141.87C188.062 141.934 186.904 141.956 185.403 141.956C181.37 141.956 178.217 141.634 175.944 140.969C173.67 140.304 171.869 139.104 170.539 137.367C169.209 135.63 168.565 133.035 168.565 129.626V102.993H165.241C164.404 102.993 163.739 102.757 163.268 102.264C162.796 101.792 162.538 101.127 162.538 100.291V93.9008C162.538 93.0645 162.774 92.3998 163.268 91.928C163.739 91.4563 164.404 91.1989 165.241 91.1989H168.565V80.6702C168.565 79.8339 168.801 79.1692 169.295 78.6974C169.767 78.2257 170.431 77.9683 171.268 77.9683H179.204C180.04 77.9683 180.705 78.2042 181.177 78.6974C181.649 79.1692 181.906 79.8339 181.906 80.6702V91.1989H189.113C189.95 91.1989 190.615 91.4348 191.087 91.928C191.558 92.3998 191.816 93.0645 191.816 93.9008V100.291C191.816 101.127 191.58 101.792 191.087 102.264C190.615 102.736 189.95 102.993 189.113 102.993H181.885V123.064Z" fill="white"/>
<path d="M457.93 138.825C457.93 139.661 457.694 140.326 457.201 140.798C456.729 141.269 456.064 141.527 455.227 141.527H447.12C446.283 141.527 445.618 141.291 445.146 140.798C444.675 140.326 444.417 139.661 444.417 138.825V104.344H441.543C440.707 104.344 440.042 104.108 439.57 103.615C439.098 103.143 438.841 102.478 438.841 101.642V95.5091C438.841 94.6728 439.077 94.008 439.57 93.5363C440.042 93.0645 440.707 92.8072 441.543 92.8072H444.417C444.653 86.3742 446.476 81.4851 449.865 78.1184C453.254 74.7518 458.016 73.0792 464.15 73.0792C465.287 73.0792 466.424 73.165 467.582 73.358C469.255 73.5939 470.048 74.6232 469.92 76.4244L469.555 81.9997C469.491 83.5651 468.955 84.337 467.925 84.337L465.673 84.2513C462.67 84.2513 460.632 84.9803 459.539 86.4171C458.445 87.8538 457.908 89.9981 457.908 92.8072H464.129C464.965 92.8072 465.63 93.0431 466.102 93.5363C466.574 94.008 466.831 94.6728 466.831 95.5091V101.642C466.831 102.478 466.595 103.143 466.102 103.615C465.63 104.086 464.965 104.344 464.129 104.344H457.908V138.825H457.93Z" fill="white"/>
<path d="M485.963 84.6587C484.526 86.074 482.789 86.7816 480.73 86.7816C478.628 86.7816 476.848 86.074 475.368 84.6587C473.888 83.2434 473.159 81.5279 473.159 79.4694C473.159 77.4966 473.888 75.8025 475.368 74.3873C476.848 72.972 478.628 72.2644 480.73 72.2644C482.768 72.2644 484.505 72.972 485.963 74.3873C487.4 75.8025 488.13 77.4966 488.13 79.4694C488.108 81.5279 487.4 83.2434 485.963 84.6587ZM474.703 140.819C474.231 140.347 473.974 139.683 473.974 138.846V94.78C473.974 93.9437 474.209 93.2789 474.703 92.8072C475.196 92.3354 475.84 92.0781 476.676 92.0781H484.784C485.62 92.0781 486.285 92.314 486.757 92.8072C487.229 93.3004 487.486 93.9437 487.486 94.78V138.825C487.486 139.661 487.25 140.326 486.757 140.798C486.285 141.269 485.62 141.527 484.784 141.527H476.676C475.84 141.527 475.175 141.291 474.703 140.819Z" fill="white"/>
<path d="M538.255 96.4526C541.408 100.034 542.995 105.287 542.995 112.256V138.825C542.995 139.661 542.76 140.326 542.266 140.798C541.794 141.269 541.129 141.527 540.293 141.527H531.907C531.07 141.527 530.405 141.291 529.933 140.798C529.461 140.326 529.204 139.661 529.204 138.825V112.256C529.204 105.587 526.03 102.264 519.659 102.264C516.892 102.264 514.597 103.314 512.774 105.416C510.951 107.517 510.093 110.82 510.2 115.323V138.825C510.2 139.661 509.964 140.326 509.471 140.798C508.978 141.291 508.334 141.527 507.476 141.527H499.455C498.618 141.527 497.953 141.291 497.481 140.798C497.009 140.326 496.752 139.661 496.752 138.825V94.6942C496.752 93.8579 496.988 93.1932 497.481 92.7214C497.975 92.2497 498.618 91.9923 499.455 91.9923H507.476C508.313 91.9923 508.978 92.2282 509.45 92.7214C509.922 93.2146 510.179 93.8579 510.179 94.6942V96.4097C511.809 94.78 513.825 93.4934 516.27 92.5284C518.694 91.5635 521.096 91.0917 523.434 91.0917C530.148 91.0917 535.102 92.893 538.255 96.4526Z" fill="white"/>
<path d="M590.462 140.819C589.99 140.347 589.732 139.683 589.732 138.846V136.595C588.531 138.224 586.515 139.618 583.705 140.819C580.874 142.02 577.871 142.62 574.697 142.62C569.656 142.62 565.238 141.484 561.463 139.232C557.688 136.981 554.792 133.85 552.819 129.819C550.846 125.916 549.838 121.563 549.838 116.76C549.838 111.892 550.846 107.517 552.862 103.615C554.878 99.712 557.731 96.6241 561.463 94.3297C565.195 92.0567 569.592 90.8987 574.697 90.8987C578 90.8987 580.981 91.4777 583.619 92.6142C586.258 93.7507 588.295 95.2517 589.754 97.1173V76.1242C589.754 75.2879 589.99 74.6232 590.483 74.1514C590.955 73.6797 591.62 73.4223 592.456 73.4223H600.392C601.229 73.4223 601.894 73.6582 602.366 74.1514C602.837 74.6232 603.095 75.2879 603.095 76.1242V138.803C603.095 139.64 602.859 140.304 602.366 140.776C601.894 141.248 601.229 141.505 600.392 141.505H592.456C591.598 141.527 590.933 141.291 590.462 140.819ZM586.536 106.595C584.048 104.022 580.745 102.714 576.67 102.714C572.53 102.714 569.227 104.001 566.761 106.595C564.294 109.169 563.071 112.578 563.071 116.781C563.071 120.855 564.337 124.2 566.846 126.816C569.377 129.433 572.638 130.741 576.67 130.741C580.874 130.741 584.198 129.497 586.622 127.009C589.046 124.522 590.268 121.113 590.268 116.781C590.268 112.557 589.024 109.169 586.536 106.595Z" fill="white"/>
<path d="M624.694 140.176C620.661 138.439 617.272 135.737 614.505 132.07C611.567 128.232 610.087 123.193 610.087 116.931C610.087 111.828 611.267 107.324 613.648 103.422C616.028 99.519 619.246 96.4955 623.342 94.3726C627.418 92.2497 631.986 91.1775 637.027 91.1775C641.467 91.1775 645.628 92.1639 649.51 94.0938C653.392 96.0452 656.545 98.8542 659.012 102.521C660.642 104.923 661.693 107.26 662.165 109.555C662.636 111.828 662.894 114.508 662.894 117.574C662.894 118.84 662.572 119.89 661.907 120.727C661.242 121.563 660.32 121.992 659.119 121.992H623.514C624.179 125.122 625.83 127.395 628.469 128.832C631.107 130.269 633.959 130.998 637.027 130.998C639.493 130.998 641.595 130.633 643.333 129.926C645.07 129.197 646.636 128.189 648.008 126.859C648.781 126.195 649.51 125.873 650.175 125.873C650.711 125.873 651.247 126.045 651.805 126.409L657.66 129.84C658.625 130.376 659.097 131.041 659.097 131.813C659.097 132.285 658.861 132.864 658.368 133.528C652.834 139.704 645.735 142.813 637.027 142.813C632.823 142.792 628.705 141.913 624.694 140.176ZM627.889 105.695C625.509 107.496 624.179 109.748 623.879 112.449H648.652C648.48 110.82 647.88 109.297 646.85 107.86C645.821 106.424 644.469 105.244 642.796 104.344C641.123 103.443 639.171 102.993 636.941 102.993C633.273 102.993 630.249 103.893 627.889 105.695Z" fill="white"/>
<path d="M699.271 91.8208C699.743 92.2926 700 93.0002 700 93.9008V101.556C700 103.186 699.099 104.086 697.298 104.258C695.367 104.387 693.458 104.837 691.528 105.652C689.597 106.467 687.86 107.71 686.294 109.383C684.128 111.72 683.056 115.151 683.056 119.654V138.846C683.056 139.683 682.82 140.347 682.326 140.819C681.854 141.291 681.19 141.548 680.353 141.548H672.331C671.495 141.548 670.83 141.312 670.358 140.819C669.886 140.347 669.629 139.683 669.629 138.846V94.6942C669.629 93.8579 669.865 93.1932 670.358 92.7214C670.851 92.2497 671.495 91.9924 672.331 91.9924H680.353C681.19 91.9924 681.854 92.2282 682.326 92.7214C682.798 93.2146 683.056 93.8579 683.056 94.6942V98.5755C684.793 96.3025 686.938 94.5441 689.447 93.3433C691.978 92.1425 694.574 91.4134 697.276 91.1775C698.134 91.1346 698.799 91.3276 699.271 91.8208Z" fill="white"/>
</g>
<defs>
<clipPath id="clip0_428_994">
<rect width="700" height="277.049" fill="white"/>
</clipPath>
</defs>
</svg>
